<?xml version="1.0" encoding="UTF-8"?>
<svg xmlns="http://www.w3.org/2000/svg" xmlns:xlink="http://www.w3.org/1999/xlink" width="200px" height="106px" viewBox="0 0 199 106" version="1.1">
<g id="surface1">
<path style=" stroke:none;fill-rule:nonzero;fill:rgb(79.215686%,79.215686%,79.215686%);fill-opacity:1;" d="M 146.304688 7.585938 L 39.957031 7.585938 C 38.386719 7.585938 37.109375 8.867188 37.109375 10.445312 L 37.109375 87.140625 C 37.109375 88.71875 38.386719 89.996094 39.957031 89.996094 L 146.304688 89.996094 C 147.878906 89.996094 149.152344 88.71875 149.152344 87.140625 L 149.152344 10.445312 C 149.152344 8.867188 147.878906 7.585938 146.304688 7.585938 Z M 42.953125 12.070312 C 42.191406 12.070312 41.578125 11.449219 41.578125 10.6875 C 41.578125 9.925781 42.191406 9.308594 42.953125 9.308594 C 43.710938 9.308594 44.328125 9.925781 44.328125 10.6875 C 44.328125 11.449219 43.710938 12.070312 42.953125 12.070312 Z M 51.199219 12.070312 C 50.441406 12.070312 49.828125 11.449219 49.828125 10.6875 C 49.828125 9.925781 50.441406 9.308594 51.199219 9.308594 C 51.960938 9.308594 52.574219 9.925781 52.574219 10.6875 C 52.574219 11.449219 51.960938 12.070312 51.199219 12.070312 Z M 59.449219 12.070312 C 58.691406 12.070312 58.074219 11.449219 58.074219 10.6875 C 58.074219 9.925781 58.691406 9.308594 59.449219 9.308594 C 60.207031 9.308594 60.824219 9.925781 60.824219 10.6875 C 60.824219 11.449219 60.207031 12.070312 59.449219 12.070312 Z M 67.699219 12.070312 C 66.9375 12.070312 66.324219 11.449219 66.324219 10.6875 C 66.324219 9.925781 66.9375 9.308594 67.699219 9.308594 C 68.457031 9.308594 69.074219 9.925781 69.074219 10.6875 C 69.074219 11.449219 68.457031 12.070312 67.699219 12.070312 Z M 75.945312 12.070312 C 75.1875 12.070312 74.570312 11.449219 74.570312 10.6875 C 74.570312 9.925781 75.1875 9.308594 75.945312 9.308594 C 76.707031 9.308594 77.320312 9.925781 77.320312 10.6875 C 77.320312 11.449219 76.707031 12.070312 75.945312 12.070312 Z M 84.195312 12.070312 C 83.4375 12.070312 82.820312 11.449219 82.820312 10.6875 C 82.820312 9.925781 83.4375 9.308594 84.195312 9.308594 C 84.953125 9.308594 85.570312 9.925781 85.570312 10.6875 C 85.570312 11.449219 84.953125 12.070312 84.195312 12.070312 Z M 92.445312 12.070312 C 91.683594 12.070312 91.070312 11.449219 91.070312 10.6875 C 91.070312 9.925781 91.683594 9.308594 92.445312 9.308594 C 93.203125 9.308594 93.820312 9.925781 93.820312 10.6875 C 93.820312 11.449219 93.203125 12.070312 92.445312 12.070312 Z M 100.691406 12.070312 C 99.933594 12.070312 99.316406 11.449219 99.316406 10.6875 C 99.316406 9.925781 99.933594 9.308594 100.691406 9.308594 C 101.453125 9.308594 102.066406 9.925781 102.066406 10.6875 C 102.066406 11.449219 101.453125 12.070312 100.691406 12.070312 Z M 108.941406 12.070312 C 108.179688 12.070312 107.566406 11.449219 107.566406 10.6875 C 107.566406 9.925781 108.179688 9.308594 108.941406 9.308594 C 109.699219 9.308594 110.316406 9.925781 110.316406 10.6875 C 110.316406 11.449219 109.699219 12.070312 108.941406 12.070312 Z M 117.1875 12.070312 C 116.429688 12.070312 115.816406 11.449219 115.816406 10.6875 C 115.816406 9.925781 116.429688 9.308594 117.1875 9.308594 C 117.949219 9.308594 118.5625 9.925781 118.5625 10.6875 C 118.5625 11.449219 117.949219 12.070312 117.1875 12.070312 Z M 125.4375 12.070312 C 124.679688 12.070312 124.0625 11.449219 124.0625 10.6875 C 124.0625 9.925781 124.679688 9.308594 125.4375 9.308594 C 126.195312 9.308594 126.8125 9.925781 126.8125 10.6875 C 126.8125 11.449219 126.195312 12.070312 125.4375 12.070312 Z M 133.6875 12.070312 C 132.925781 12.070312 132.3125 11.449219 132.3125 10.6875 C 132.3125 9.925781 132.925781 9.308594 133.6875 9.308594 C 134.445312 9.308594 135.0625 9.925781 135.0625 10.6875 C 135.0625 11.449219 134.445312 12.070312 133.6875 12.070312 Z M 141.933594 12.070312 C 141.175781 12.070312 140.558594 11.449219 140.558594 10.6875 C 140.558594 9.925781 141.175781 9.308594 141.933594 9.308594 C 142.695312 9.308594 143.308594 9.925781 143.308594 10.6875 C 143.308594 11.449219 142.695312 12.070312 141.933594 12.070312 Z M 141.933594 12.070312 "/>
<path style=" stroke:none;fill-rule:nonzero;fill:rgb(94.117647%,94.117647%,94.117647%);fill-opacity:1;" d="M 140.804688 0 L 34.460938 0 C 32.886719 0 31.609375 1.28125 31.609375 2.859375 L 31.609375 79.554688 C 31.609375 81.132812 32.886719 82.410156 34.460938 82.410156 L 140.804688 82.410156 C 142.378906 82.410156 143.652344 81.132812 143.652344 79.554688 L 143.652344 2.859375 C 143.652344 1.28125 142.378906 0 140.804688 0 Z M 37.453125 4.484375 C 36.695312 4.484375 36.078125 3.863281 36.078125 3.101562 C 36.078125 2.339844 36.695312 1.722656 37.453125 1.722656 C 38.210938 1.722656 38.828125 2.339844 38.828125 3.101562 C 38.828125 3.863281 38.210938 4.484375 37.453125 4.484375 Z M 45.703125 4.484375 C 44.941406 4.484375 44.328125 3.863281 44.328125 3.101562 C 44.328125 2.339844 44.941406 1.722656 45.703125 1.722656 C 46.460938 1.722656 47.078125 2.339844 47.078125 3.101562 C 47.078125 3.863281 46.460938 4.484375 45.703125 4.484375 Z M 53.949219 4.484375 C 53.191406 4.484375 52.574219 3.863281 52.574219 3.101562 C 52.574219 2.339844 53.191406 1.722656 53.949219 1.722656 C 54.710938 1.722656 55.324219 2.339844 55.324219 3.101562 C 55.324219 3.863281 54.710938 4.484375 53.949219 4.484375 Z M 62.199219 4.484375 C 61.441406 4.484375 60.824219 3.863281 60.824219 3.101562 C 60.824219 2.339844 61.441406 1.722656 62.199219 1.722656 C 62.957031 1.722656 63.574219 2.339844 63.574219 3.101562 C 63.574219 3.863281 62.957031 4.484375 62.199219 4.484375 Z M 70.449219 4.484375 C 69.6875 4.484375 69.074219 3.863281 69.074219 3.101562 C 69.074219 2.339844 69.6875 1.722656 70.449219 1.722656 C 71.207031 1.722656 71.824219 2.339844 71.824219 3.101562 C 71.824219 3.863281 71.207031 4.484375 70.449219 4.484375 Z M 78.695312 4.484375 C 77.9375 4.484375 77.320312 3.863281 77.320312 3.101562 C 77.320312 2.339844 77.9375 1.722656 78.695312 1.722656 C 79.457031 1.722656 80.070312 2.339844 80.070312 3.101562 C 80.070312 3.863281 79.457031 4.484375 78.695312 4.484375 Z M 86.945312 4.484375 C 86.183594 4.484375 85.570312 3.863281 85.570312 3.101562 C 85.570312 2.339844 86.183594 1.722656 86.945312 1.722656 C 87.703125 1.722656 88.320312 2.339844 88.320312 3.101562 C 88.320312 3.863281 87.703125 4.484375 86.945312 4.484375 Z M 95.191406 4.484375 C 94.433594 4.484375 93.820312 3.863281 93.820312 3.101562 C 93.820312 2.339844 94.433594 1.722656 95.191406 1.722656 C 95.953125 1.722656 96.566406 2.339844 96.566406 3.101562 C 96.566406 3.863281 95.953125 4.484375 95.191406 4.484375 Z M 103.441406 4.484375 C 102.683594 4.484375 102.066406 3.863281 102.066406 3.101562 C 102.066406 2.339844 102.683594 1.722656 103.441406 1.722656 C 104.199219 1.722656 104.816406 2.339844 104.816406 3.101562 C 104.816406 3.863281 104.199219 4.484375 103.441406 4.484375 Z M 111.691406 4.484375 C 110.929688 4.484375 110.316406 3.863281 110.316406 3.101562 C 110.316406 2.339844 110.929688 1.722656 111.691406 1.722656 C 112.449219 1.722656 113.066406 2.339844 113.066406 3.101562 C 113.066406 3.863281 112.449219 4.484375 111.691406 4.484375 Z M 119.9375 4.484375 C 119.179688 4.484375 118.5625 3.863281 118.5625 3.101562 C 118.5625 2.339844 119.179688 1.722656 119.9375 1.722656 C 120.699219 1.722656 121.3125 2.339844 121.3125 3.101562 C 121.3125 3.863281 120.699219 4.484375 119.9375 4.484375 Z M 128.1875 4.484375 C 127.429688 4.484375 126.8125 3.863281 126.8125 3.101562 C 126.8125 2.339844 127.429688 1.722656 128.1875 1.722656 C 128.945312 1.722656 129.5625 2.339844 129.5625 3.101562 C 129.5625 3.863281 128.945312 4.484375 128.1875 4.484375 Z M 136.4375 4.484375 C 135.675781 4.484375 135.0625 3.863281 135.0625 3.101562 C 135.0625 2.339844 135.675781 1.722656 136.4375 1.722656 C 137.195312 1.722656 137.8125 2.339844 137.8125 3.101562 C 137.8125 3.863281 137.195312 4.484375 136.4375 4.484375 Z M 136.4375 4.484375 "/>
<path style=" stroke:none;fill-rule:nonzero;fill:rgb(42.352941%,38.823529%,100%);fill-opacity:1;" d="M 60.6875 42.210938 C 60.683594 39.167969 61.433594 36.082031 63.136719 33.535156 C 64.769531 31.0625 67.324219 29.351562 70.230469 28.800781 C 71.648438 28.53125 73.113281 28.617188 74.492188 29.046875 C 75.738281 29.457031 76.863281 30.183594 77.753906 31.152344 C 79.460938 32.980469 80.511719 35.902344 79.523438 38.335938 C 79.054688 39.488281 78.132812 40.390625 76.976562 40.832031 C 75.960938 41.1875 74.707031 40.914062 74.265625 39.820312 C 73.890625 38.882812 74.285156 37.757812 74.910156 37.027344 C 75.65625 36.136719 76.859375 35.785156 77.964844 36.140625 C 79.304688 36.523438 80.359375 37.617188 80.992188 38.828125 C 81.730469 40.234375 81.882812 41.898438 81.726562 43.457031 C 81.386719 46.898438 79.613281 49.957031 78.308594 53.089844 C 77.097656 56 76.089844 59.367188 77.023438 62.503906 C 77.804688 65.039062 79.847656 66.988281 82.414062 67.640625 C 84.820312 68.289062 87.636719 67.828125 89.347656 65.894531 C 90.152344 64.984375 90.742188 63.796875 90.75 62.558594 C 90.773438 61.382812 90.160156 60.28125 89.144531 59.6875 C 87.0625 58.515625 84.246094 59.71875 83.375 61.859375 C 82.839844 63.167969 82.941406 64.671875 83.445312 65.972656 C 83.984375 67.316406 84.894531 68.476562 86.066406 69.316406 C 87.285156 70.226562 88.710938 70.828125 90.148438 71.292969 C 91.644531 71.78125 93.1875 72.117188 94.75 72.292969 C 97.734375 72.613281 100.847656 72.113281 103.183594 70.109375 C 105.242188 68.34375 106.371094 65.734375 106.949219 63.132812 C 107.617188 60.113281 107.515625 57.035156 107.523438 53.964844 C 107.53125 50.691406 107.613281 47.121094 109.183594 44.164062 C 110.417969 41.835938 112.601562 39.800781 115.207031 39.191406 C 116.410156 38.90625 117.671875 39.011719 118.8125 39.492188 C 119.191406 39.648438 119.355469 39.03125 118.984375 38.875 C 116.480469 37.820312 113.722656 38.648438 111.65625 40.253906 C 110.566406 41.101562 109.640625 42.144531 108.925781 43.328125 C 108.15625 44.664062 107.625 46.121094 107.359375 47.640625 C 106.152344 53.808594 108.019531 60.46875 105.207031 66.332031 C 104.65625 67.527344 103.878906 68.601562 102.917969 69.496094 C 101.8125 70.480469 100.472656 71.164062 99.03125 71.476562 C 95.980469 72.171875 92.675781 71.511719 89.773438 70.492188 C 86.992188 69.515625 84.214844 67.679688 83.714844 64.542969 C 83.511719 63.25 83.800781 61.800781 84.785156 60.882812 C 85.625 60.113281 86.765625 59.757812 87.894531 59.921875 C 89.011719 60.082031 89.898438 60.953125 90.082031 62.074219 C 90.277344 63.289062 89.6875 64.554688 88.898438 65.445312 C 87.164062 67.398438 84.269531 67.671875 81.917969 66.816406 C 80.757812 66.394531 79.726562 65.683594 78.917969 64.75 C 77.984375 63.601562 77.429688 62.1875 77.332031 60.710938 C 77.054688 57.359375 78.5 54.140625 79.855469 51.171875 C 81.234375 48.148438 82.71875 44.828125 82.371094 41.414062 C 82.246094 39.90625 81.675781 38.46875 80.726562 37.289062 C 79.855469 36.246094 78.621094 35.460938 77.242188 35.375 C 76.109375 35.3125 75.015625 35.820312 74.335938 36.730469 C 73.683594 37.566406 73.300781 38.707031 73.578125 39.757812 C 73.898438 40.859375 74.898438 41.625 76.039062 41.632812 C 77.257812 41.65625 78.417969 40.921875 79.195312 40.03125 C 80.960938 38.019531 80.789062 35.039062 79.644531 32.761719 C 78.417969 30.296875 76.085938 28.574219 73.375 28.128906 C 70.539062 27.6875 67.582031 28.566406 65.308594 30.292969 C 62.886719 32.132812 61.316406 34.894531 60.578125 37.824219 C 60.222656 39.257812 60.042969 40.730469 60.050781 42.210938 C 60.058594 42.382812 60.199219 42.519531 60.371094 42.519531 C 60.542969 42.519531 60.683594 42.382812 60.6875 42.210938 Z M 60.6875 42.210938 "/>
<path style=" stroke:none;fill-rule:nonzero;fill:rgb(79.215686%,79.215686%,79.215686%);fill-opacity:1;" d="M 198.992188 88.507812 C 198.992188 87.683594 195.953125 87.019531 192.203125 87.019531 C 188.453125 87.019531 185.414062 87.683594 185.414062 88.507812 C 185.414062 89.332031 188.453125 89.996094 192.203125 89.996094 C 195.953125 89.996094 198.992188 89.332031 198.992188 88.507812 Z M 198.992188 88.507812 "/>
<path style=" stroke:none;fill-rule:nonzero;fill:rgb(79.215686%,79.215686%,79.215686%);fill-opacity:1;" d="M 191.671875 59.378906 L 192.097656 59.378906 L 192.097656 87.621094 L 191.671875 87.621094 Z M 191.671875 59.378906 "/>
<path style=" stroke:none;fill-rule:nonzero;fill:rgb(89.411765%,89.411765%,89.411765%);fill-opacity:1;" d="M 176.433594 56.722656 L 176.734375 56.90625 C 176.703125 56.578125 176.828125 56.257812 177.066406 56.03125 C 177.308594 55.808594 177.640625 55.710938 177.960938 55.765625 L 177.90625 55.691406 L 184.085938 51.371094 L 184.035156 51.367188 L 184.3125 42.996094 L 184.316406 42.996094 C 183.816406 42.179688 183.996094 41.117188 184.738281 40.511719 C 185.480469 39.90625 186.554688 39.949219 187.25 40.605469 L 187.109375 39.871094 L 189.550781 39.871094 L 189.550781 38.59375 L 189.6875 38.59375 L 187.851562 33.273438 C 187.851562 31.273438 189.46875 29.65625 191.460938 29.65625 C 193.453125 29.65625 195.066406 31.273438 195.066406 33.273438 L 193.582031 38.59375 L 193.367188 38.605469 L 193.367188 39.871094 L 195.808594 39.871094 L 195.703125 40.574219 C 196.410156 39.9375 197.472656 39.917969 198.199219 40.527344 C 198.925781 41.132812 199.097656 42.1875 198.605469 42.996094 L 198.886719 51.367188 L 198.496094 51.402344 C 198.75 51.605469 198.894531 51.917969 198.882812 52.246094 C 198.875 52.570312 198.71875 52.875 198.453125 53.066406 L 198.886719 53.066406 L 198.886719 61.269531 L 198.792969 61.265625 C 199.023438 61.5 199.132812 61.828125 199.085938 62.152344 C 199.042969 62.480469 198.847656 62.765625 198.5625 62.925781 L 198.886719 63.070312 L 197.71875 67.382812 L 196.550781 62.796875 L 196.976562 62.222656 L 197 62.230469 C 196.917969 61.851562 197.050781 61.453125 197.347656 61.203125 L 196.976562 61.1875 L 196.550781 53.066406 L 197.195312 53.066406 C 196.957031 52.894531 196.804688 52.632812 196.769531 52.339844 C 196.738281 52.050781 196.824219 51.757812 197.015625 51.535156 L 196.550781 51.578125 L 195.710938 43.433594 L 195.714844 43.433594 C 195.570312 43.308594 195.445312 43.15625 195.34375 42.992188 L 194.324219 49.875 L 193.792969 49.875 L 193.792969 52.855469 L 195.171875 52.855469 L 195.171875 60.519531 L 194.738281 60.519531 C 195.109375 60.929688 195.171875 61.53125 194.894531 62.007812 L 195.773438 62.007812 L 195.285156 72.59375 C 195.460938 72.867188 195.527344 73.199219 195.46875 73.519531 L 195.773438 73.496094 L 195.316406 85.78125 C 195.820312 86.273438 195.832031 87.082031 195.34375 87.585938 C 194.855469 88.09375 194.050781 88.109375 193.546875 87.617188 C 193.039062 87.128906 193.027344 86.320312 193.511719 85.8125 L 192.730469 73.714844 L 193.011719 73.695312 C 192.941406 73.488281 192.925781 73.265625 192.96875 73.054688 L 192.308594 62.007812 L 192.691406 62.007812 C 192.414062 61.53125 192.476562 60.929688 192.847656 60.519531 L 190.285156 60.519531 C 190.652344 60.929688 190.714844 61.53125 190.4375 62.007812 L 191.320312 62.007812 L 190.828125 72.59375 C 191.007812 72.867188 191.074219 73.199219 191.011719 73.519531 L 191.320312 73.496094 L 190.859375 85.78125 C 191.363281 86.273438 191.378906 87.082031 190.890625 87.585938 C 190.402344 88.09375 189.597656 88.109375 189.089844 87.617188 C 188.585938 87.128906 188.570312 86.320312 189.058594 85.8125 L 188.277344 73.714844 L 188.554688 73.695312 C 188.484375 73.488281 188.472656 73.265625 188.511719 73.054688 L 187.851562 62.007812 L 188.238281 62.007812 C 187.960938 61.53125 188.023438 60.929688 188.390625 60.519531 L 187.746094 60.519531 L 187.746094 52.855469 L 189.125 52.855469 L 189.125 49.875 L 189.019531 49.875 L 187.671875 42.8125 C 187.558594 43.046875 187.402344 43.261719 187.207031 43.433594 L 186.367188 51.578125 L 185.902344 51.535156 C 186.234375 51.921875 186.238281 52.488281 185.917969 52.882812 L 185.945312 52.921875 L 185.765625 53.03125 C 185.753906 53.042969 185.738281 53.058594 185.726562 53.066406 L 185.710938 53.066406 L 179.066406 57.21875 L 178.839844 56.917969 C 178.804688 57.308594 178.558594 57.644531 178.199219 57.792969 L 178.21875 57.808594 L 177.992188 58.488281 L 173.578125 60.148438 Z M 176.433594 56.722656 "/>
<path style=" stroke:none;fill-rule:nonzero;fill:rgb(79.215686%,79.215686%,79.215686%);fill-opacity:1;" d="M 14.574219 39.15625 L 18.867188 40.433594 L 18.46875 41.792969 L 14.175781 40.515625 Z M 14.574219 39.15625 "/>
<path style=" stroke:none;fill-rule:nonzero;fill:rgb(79.215686%,79.215686%,79.215686%);fill-opacity:1;" d="M 19.5 38.089844 L 15.316406 36.851562 C 14.546875 36.621094 13.738281 37.054688 13.496094 37.820312 C 13.253906 38.585938 13.667969 39.40625 14.425781 39.664062 C 14.445312 39.671875 14.460938 39.679688 14.480469 39.683594 L 18.664062 40.925781 C 18.679688 40.933594 18.699219 40.9375 18.71875 40.9375 C 19.496094 41.136719 20.289062 40.671875 20.5 39.898438 C 20.710938 39.121094 20.265625 38.320312 19.5 38.089844 Z M 19.5 38.089844 "/>
<path style=" stroke:none;fill-rule:nonzero;fill:rgb(89.411765%,89.411765%,89.411765%);fill-opacity:1;" d="M 18.800781 41.398438 L 18.601562 41.339844 L 14.308594 40.066406 L 14.246094 40.046875 L 12.574219 40.5625 L 8.902344 50.644531 L 4.820312 61.851562 L 0.0742188 74.886719 C -0.0390625 75.179688 -0.0234375 75.507812 0.121094 75.789062 C 0.261719 76.070312 0.511719 76.28125 0.8125 76.371094 L 10.222656 79.164062 C 10.519531 79.253906 10.839844 79.214844 11.109375 79.058594 C 11.378906 78.902344 11.570312 78.644531 11.644531 78.339844 L 14.808594 65.113281 L 17.589844 53.484375 L 20.136719 42.839844 L 20.144531 42.808594 Z M 18.800781 41.398438 "/>
<path style=" stroke:none;fill-rule:nonzero;fill:rgb(42.352941%,38.823529%,100%);fill-opacity:1;" d="M 47.414062 57.691406 C 47.296875 57.691406 47.1875 57.695312 47.074219 57.707031 C 47.367188 56.027344 46.378906 54.386719 44.757812 53.863281 C 43.136719 53.34375 41.382812 54.105469 40.648438 55.644531 C 39.910156 57.183594 40.421875 59.03125 41.84375 59.972656 C 41.152344 60.390625 40.78125 61.183594 40.902344 61.984375 C 41.027344 62.785156 41.621094 63.429688 42.402344 63.617188 C 43.1875 63.808594 44.007812 63.5 44.480469 62.84375 C 45.316406 64.269531 47.054688 64.886719 48.597656 64.3125 C 50.144531 63.734375 51.058594 62.132812 50.765625 60.503906 C 50.472656 58.875 49.0625 57.691406 47.414062 57.691406 Z M 47.414062 57.691406 "/>
<path style=" stroke:none;fill-rule:nonzero;fill:rgb(79.215686%,79.215686%,79.215686%);fill-opacity:1;" d="M 40.066406 60.636719 L 44.980469 63.46875 L 44.089844 65.027344 L 39.175781 62.195312 Z M 40.066406 60.636719 "/>
<path style=" stroke:none;fill-rule:nonzero;fill:rgb(79.215686%,79.215686%,79.215686%);fill-opacity:1;" d="M 38.667969 52.984375 C 38.078125 52.136719 36.917969 51.929688 36.070312 52.519531 L 31.542969 55.683594 C 30.699219 56.273438 30.488281 57.441406 31.078125 58.289062 C 31.667969 59.136719 32.828125 59.34375 33.675781 58.753906 L 38.203125 55.585938 C 39.046875 54.996094 39.253906 53.832031 38.667969 52.984375 Z M 38.667969 52.984375 "/>
<path style=" stroke:none;fill-rule:nonzero;fill:rgb(89.411765%,89.411765%,89.411765%);fill-opacity:1;" d="M 44.617188 64.636719 L 44.386719 64.507812 L 39.472656 61.675781 L 39.398438 61.636719 L 37.195312 61.785156 L 29.460938 73.3125 L 22.808594 83.222656 L 13.773438 96.6875 C 13.554688 97.019531 13.480469 97.425781 13.570312 97.8125 C 13.660156 98.203125 13.90625 98.535156 14.25 98.734375 L 25.027344 104.9375 C 25.371094 105.132812 25.777344 105.183594 26.152344 105.070312 C 26.53125 104.957031 26.84375 104.691406 27.019531 104.339844 L 34.277344 89.867188 L 39.625 79.203125 L 45.839844 66.804688 L 45.859375 66.769531 Z M 44.617188 64.636719 "/>
<path style=" stroke:none;fill-rule:nonzero;fill:rgb(79.215686%,79.215686%,79.215686%);fill-opacity:1;" d="M 14.183594 95.488281 L 27.957031 103.46875 L 26.539062 105.9375 L 12.761719 97.957031 Z M 14.183594 95.488281 "/>
<path style=" stroke:none;fill-rule:nonzero;fill:rgb(18.431373%,18.039216%,25.490196%);fill-opacity:1;" d="M 144.378906 24.464844 C 144.929688 22.710938 146.179688 21.097656 147.90625 20.503906 C 149.636719 19.910156 152.167969 20.8125 153.46875 22.113281 C 155.84375 24.492188 155.917969 27.398438 154.285156 29.980469 C 153.960938 29.964844 152.839844 29.949219 152.507812 29.9375 L 152.042969 28.382812 L 152.042969 29.921875 C 149.476562 29.84375 146.804688 29.894531 144.132812 29.945312 C 143.894531 28.117188 143.828125 26.222656 144.378906 24.464844 Z M 144.378906 24.464844 "/>
<path style=" stroke:none;fill-rule:nonzero;fill:rgb(100%,71.372549%,71.372549%);fill-opacity:1;" d="M 132.945312 52.335938 C 132.742188 51.898438 132.742188 51.398438 132.945312 50.960938 C 133.144531 50.523438 133.53125 50.199219 133.992188 50.078125 L 140.902344 37 L 143.6875 39.160156 L 136.023438 51.332031 C 136.183594 52.144531 135.710938 52.949219 134.929688 53.207031 C 134.144531 53.460938 133.292969 53.085938 132.945312 52.335938 Z M 132.945312 52.335938 "/>
<path style=" stroke:none;fill-rule:nonzero;fill:rgb(100%,71.372549%,71.372549%);fill-opacity:1;" d="M 142.023438 93.953125 L 139.683594 93.953125 L 138.566406 84.894531 L 142.023438 84.894531 Z M 142.023438 93.953125 "/>
<path style=" stroke:none;fill-rule:nonzero;fill:rgb(100%,71.372549%,71.372549%);fill-opacity:1;" d="M 156.449219 93.953125 L 154.109375 93.953125 L 152.996094 84.894531 L 156.449219 84.894531 Z M 156.449219 93.953125 "/>
<path style=" stroke:none;fill-rule:nonzero;fill:rgb(100%,71.372549%,71.372549%);fill-opacity:1;" d="M 151.40625 42.429688 L 151.9375 43.816406 L 151.832031 45.199219 L 141.648438 43.921875 L 141.96875 42.75 L 143.132812 41.367188 Z M 151.40625 42.429688 "/>
<path style=" stroke:none;fill-rule:nonzero;fill:rgb(100%,71.764706%,71.764706%);fill-opacity:1;" d="M 151.832031 26.261719 C 151.832031 28.316406 150.171875 29.980469 148.125 29.980469 C 146.078125 29.980469 144.417969 28.316406 144.417969 26.261719 C 144.417969 24.207031 146.078125 22.542969 148.125 22.542969 C 150.171875 22.542969 151.832031 24.207031 151.832031 26.261719 Z M 151.832031 26.261719 "/>
<path style=" stroke:none;fill-rule:nonzero;fill:rgb(42.352941%,38.823529%,100%);fill-opacity:1;" d="M 144.195312 32.640625 L 146.316406 31.363281 L 150.558594 30.9375 L 154.308594 31.789062 L 154.273438 38.707031 L 151.894531 44.777344 L 141.921875 43.5 L 141.542969 41.359375 C 141.542969 41.359375 138.785156 37.640625 141.753906 35.511719 Z M 144.195312 32.640625 "/>
<path style=" stroke:none;fill-rule:nonzero;fill:rgb(18.431373%,18.039216%,25.490196%);fill-opacity:1;" d="M 151.9375 44.667969 L 151.9375 47.03125 C 151.9375 47.03125 154.695312 50.625 153.210938 53.394531 L 157.464844 90.21875 L 153.011719 90.21875 L 145.574219 59.140625 L 142.402344 89.578125 L 138.585938 89.578125 L 137.949219 55.734375 C 137.949219 55.734375 138.359375 47.007812 140.695312 45.519531 L 141.765625 43.601562 Z M 151.9375 44.667969 "/>
<path style=" stroke:none;fill-rule:nonzero;fill:rgb(18.431373%,18.039216%,25.490196%);fill-opacity:1;" d="M 145.578125 21.417969 C 147.03125 20.53125 148.847656 20.507812 150.320312 21.355469 C 151.792969 22.203125 152.691406 23.789062 152.65625 25.496094 C 150.585938 25.589844 148.410156 25.617188 146.203125 25.621094 L 145.679688 24.339844 L 145.371094 25.621094 C 144.699219 25.621094 144.027344 25.621094 143.351562 25.617188 C 143.292969 23.917969 144.144531 22.320312 145.578125 21.417969 Z M 145.578125 21.417969 "/>
<path style=" stroke:none;fill-rule:nonzero;fill:rgb(42.352941%,38.823529%,100%);fill-opacity:1;" d="M 121.277344 41.179688 L 119.621094 40.527344 C 119.324219 40.410156 119.113281 40.144531 119.066406 39.828125 C 119.015625 39.515625 119.140625 39.195312 119.390625 38.996094 C 119.640625 38.796875 119.976562 38.75 120.273438 38.867188 L 121.929688 39.519531 C 122.386719 39.699219 122.609375 40.21875 122.429688 40.675781 C 122.25 41.132812 121.734375 41.359375 121.277344 41.179688 Z M 121.277344 41.179688 "/>
<path style=" stroke:none;fill-rule:nonzero;fill:rgb(24.705882%,23.921569%,33.72549%);fill-opacity:1;" d="M 158.179688 52.203125 L 125.429688 39.300781 C 125.007812 39.132812 124.53125 39.183594 124.152344 39.433594 L 122.839844 38.917969 C 122.210938 38.671875 121.5 38.980469 121.253906 39.613281 L 120.847656 40.652344 C 120.601562 41.28125 120.910156 41.996094 121.539062 42.242188 L 122.628906 42.671875 C 122.476562 43.347656 122.835938 44.035156 123.480469 44.289062 L 156.226562 57.191406 C 156.945312 57.476562 157.757812 57.121094 158.039062 56.398438 L 158.96875 54.023438 C 159.253906 53.300781 158.898438 52.488281 158.179688 52.203125 Z M 158.179688 52.203125 "/>
<path style=" stroke:none;fill-rule:nonzero;fill:rgb(18.431373%,18.039216%,25.490196%);fill-opacity:1;" d="M 165.925781 61.972656 L 153.613281 57.121094 L 156.214844 50.472656 L 168.527344 55.324219 C 169.660156 55.769531 170.214844 57.050781 169.773438 58.1875 L 168.78125 60.722656 C 168.335938 61.859375 167.058594 62.417969 165.925781 61.972656 Z M 165.925781 61.972656 "/>
<path style=" stroke:none;fill-rule:nonzero;fill:rgb(42.352941%,38.823529%,100%);fill-opacity:1;" d="M 167.867188 60.5 L 161.867188 58.136719 C 161.238281 57.886719 160.925781 57.171875 161.175781 56.539062 L 161.359375 56.0625 C 161.609375 55.429688 162.320312 55.117188 162.953125 55.363281 L 168.953125 57.730469 C 169.582031 57.976562 169.894531 58.695312 169.644531 59.328125 L 169.460938 59.800781 C 169.210938 60.4375 168.5 60.746094 167.867188 60.5 Z M 167.867188 60.5 "/>
<path style=" stroke:none;fill-rule:nonzero;fill:rgb(100%,71.372549%,71.372549%);fill-opacity:1;" d="M 148.410156 49.554688 C 148.496094 49.574219 148.582031 49.597656 148.664062 49.632812 L 155.132812 45.160156 L 154.988281 43.253906 L 157.828125 42.652344 L 158.417969 46.007812 C 158.515625 46.5625 158.238281 47.117188 157.730469 47.367188 L 149.714844 51.335938 C 149.652344 52.027344 149.171875 52.605469 148.503906 52.792969 C 147.835938 52.976562 147.125 52.730469 146.71875 52.171875 C 146.308594 51.613281 146.285156 50.855469 146.664062 50.277344 C 147.039062 49.695312 147.734375 49.40625 148.410156 49.554688 Z M 148.410156 49.554688 "/>
<path style=" stroke:none;fill-rule:nonzero;fill:rgb(42.352941%,38.823529%,100%);fill-opacity:1;" d="M 39.625 79.203125 L 34.277344 89.867188 L 22.808594 83.222656 L 29.460938 73.3125 Z M 39.625 79.203125 "/>
<path style=" stroke:none;fill-rule:nonzero;fill:rgb(79.215686%,79.215686%,79.215686%);fill-opacity:1;" d="M 17.589844 53.484375 L 14.808594 65.113281 L 4.820312 61.851562 L 8.902344 50.644531 Z M 17.589844 53.484375 "/>
<path style=" stroke:none;fill-rule:nonzero;fill:rgb(42.352941%,38.823529%,100%);fill-opacity:1;" d="M 154.496094 45.304688 L 158.101562 47.433594 C 158.953125 47.007812 158.789062 44.25 158.269531 44.085938 L 157.878906 34.875 C 157.667969 30.617188 154.308594 31.789062 154.308594 31.789062 L 152.785156 32.109375 L 153.847656 36.578125 L 155 44.289062 C 154.683594 44.53125 154.496094 44.90625 154.496094 45.304688 Z M 154.496094 45.304688 "/>
<path style=" stroke:none;fill-rule:nonzero;fill:rgb(42.352941%,38.823529%,100%);fill-opacity:1;" d="M 144.277344 32.582031 C 144.277344 32.582031 141.363281 32.628906 140.453125 34.199219 C 139.726562 35.460938 138.363281 40.480469 137.847656 42.4375 C 137.269531 42.417969 136.75 42.800781 136.589844 43.359375 L 140.492188 44.878906 C 141.34375 44.453125 141.105469 43.863281 140.890625 43.558594 L 142.347656 41.371094 L 144.042969 40.519531 L 144.746094 32.984375 Z M 144.277344 32.582031 "/>
<path style=" stroke:none;fill-rule:nonzero;fill:rgb(18.431373%,18.039216%,25.490196%);fill-opacity:1;" d="M 143.070312 98.414062 L 141.410156 98.414062 L 141.113281 96.839844 L 140.351562 98.414062 L 135.949219 98.414062 C 135.515625 98.414062 135.132812 98.128906 135.003906 97.714844 C 134.875 97.300781 135.027344 96.847656 135.386719 96.601562 L 138.902344 94.164062 L 138.902344 92.574219 L 142.601562 92.792969 Z M 143.070312 98.414062 "/>
<path style=" stroke:none;fill-rule:nonzero;fill:rgb(18.431373%,18.039216%,25.490196%);fill-opacity:1;" d="M 157.707031 98.414062 L 156.046875 98.414062 L 155.75 96.839844 L 154.992188 98.414062 L 150.585938 98.414062 C 150.152344 98.414062 149.769531 98.128906 149.640625 97.714844 C 149.511719 97.300781 149.667969 96.847656 150.023438 96.601562 L 153.542969 94.164062 L 153.542969 92.574219 L 157.242188 92.792969 Z M 157.707031 98.414062 "/>
</g>
</svg>
